<svg width="63" height="51" viewBox="0 0 63 51" fill="none" xmlns="http://www.w3.org/2000/svg">
<path d="M20.9833 3.43575C20.7833 3.66864 20.1033 4.45904 19.4766 5.18946C18.8466 5.91987 18.3333 6.52679 18.3333 6.5409C18.3333 6.55855 25.7533 6.5656 34.8266 6.56208L51.3166 6.55149V4.7872V3.02291L36.3333 3.01585L21.35 3.00527L20.9833 3.43575Z" fill="black"/>
<path d="M9.46667 4.81192V6.55151L11.1 4.82251C12 3.87332 12.7333 3.08998 12.7333 3.08645C12.7333 3.07939 12 3.07586 11.1 3.07586H9.46667V4.81192Z" fill="black"/>
<path d="M11.1033 14.8154L9.46667 16.6785V32.3348V47.9947H11.1167H12.7667V30.4753C12.7667 20.8387 12.76 12.9559 12.75 12.9559C12.7433 12.9559 12 13.7921 11.1033 14.8154Z" fill="black"/>
<path d="M34.0333 13.0512C31.72 13.1535 29.5167 13.7604 27.4167 14.879C24.1133 16.6327 21.54 19.392 19.93 22.8994C18.9867 24.9601 18.45 27.0702 18.3 29.3285C18.28 29.6531 18.2667 33.1605 18.2667 38.898V47.9594H19.9167H21.5667V38.9157C21.5667 33.0794 21.58 29.7237 21.6 29.452C21.75 27.603 22.1833 25.9728 22.9667 24.3179C23.88 22.3878 25.17 20.754 26.82 19.4414C27.98 18.5134 29.49 17.6842 30.84 17.229C33.64 16.2869 36.83 16.3998 39.55 17.5289C41.3867 18.2946 42.9733 19.4026 44.2833 20.8317C46.0333 22.7371 47.2967 25.2918 47.7633 27.8677C48 29.1556 47.98 28.2452 48 38.591L48.0167 47.9418L49.66 47.9524L51.3 47.9594V38.778C51.3 28.9121 51.3033 29.1979 51.13 27.9347C50.7067 24.8296 49.3933 21.7632 47.4067 19.2368C46.9933 18.7145 45.9233 17.5819 45.4333 17.1514C43.33 15.3059 40.9 14.0286 38.3667 13.4358C37.0333 13.1253 35.48 12.9841 34.0333 13.0512Z" fill="black"/>
</svg>
