<?xml version="1.0" standalone="no"?>
<!DOCTYPE svg PUBLIC "-//W3C//DTD SVG 20010904//EN"
 "http://www.w3.org/TR/2001/REC-SVG-20010904/DTD/svg10.dtd">
<svg version="1.0" xmlns="http://www.w3.org/2000/svg"
 width="1890.000000pt" height="1417.000000pt" viewBox="0 0 1890.000000 1417.000000"
 preserveAspectRatio="xMidYMid meet">

<g transform="translate(0.000000,1417.000000) scale(0.100000,-0.100000)"
fill="#000000" stroke="none">
<path d="M6295 13338 c-60 -66 -264 -290 -452 -497 -189 -207 -343 -379 -343
-383 0 -5 2226 -7 4948 -6 l4947 3 0 500 0 500 -4495 2 -4495 3 -110 -122z"/>
<path d="M2840 12948 l0 -493 490 490 c270 269 490 491 490 492 0 2 -220 3
-490 3 l-490 0 0 -492z"/>
<path d="M3331 10113 l-491 -528 0 -4437 0 -4438 495 0 495 0 0 4965 c0 2731
-2 4965 -5 4965 -2 0 -225 -237 -494 -527z"/>
<path d="M10210 10613 c-694 -29 -1355 -201 -1985 -518 -991 -497 -1763 -1279
-2246 -2273 -283 -584 -444 -1182 -489 -1822 -6 -92 -10 -1086 -10 -2712 l0
-2568 495 0 495 0 0 2563 c0 1654 4 2605 10 2682 45 524 175 986 410 1455 274
547 661 1010 1156 1382 348 263 801 498 1206 627 840 267 1797 235 2613 -85
551 -217 1027 -531 1420 -936 525 -540 904 -1264 1044 -1994 71 -365 65 -107
71 -3039 l5 -2650 493 -3 492 -2 0 2602 c0 2796 1 2715 -51 3073 -127 880
-521 1749 -1117 2465 -124 148 -445 469 -592 591 -631 523 -1360 885 -2120
1053 -400 88 -866 128 -1300 109z"/>
</g>
</svg>
